  0
SECTION
  2
HEADER
  9
$ACADVER
  1
AC1009
  9
$DWGCODEPAGE
  3
ansi_1252
  9
$INSBASE
 10
0.0
 20
0.0
 30
0.0
  9
$EXTMIN
 10
-1158.698662608003
 20
500.0
 30
0.0
  9
$EXTMAX
 10
-549.0986626080033
 20
1109.6
 30
0.0
  9
$LIMMIN
 10
0.0
 20
0.0
  9
$LIMMAX
 10
12.0
 20
9.0
  9
$ORTHOMODE
 70
     0
  9
$REGENMODE
 70
     1
  9
$FILLMODE
 70
     1
  9
$QTEXTMODE
 70
     0
  9
$MIRRTEXT
 70
     1
  9
$DRAGMODE
 70
     2
  9
$LTSCALE
 40
1.0
  9
$OSMODE
 70
    37
  9
$ATTMODE
 70
     1
  9
$TEXTSIZE
 40
0.2
  9
$TRACEWID
 40
0.05
  9
$TEXTSTYLE
  7
STANDARD
  9
$CLAYER
  8
DEFAULT
  9
$CELTYPE
  6
BYLAYER
  9
$CECOLOR
 62
   256
  9
$DIMSCALE
 40
1.0
  9
$DIMASZ
 40
0.18
  9
$DIMEXO
 40
0.0625
  9
$DIMDLI
 40
0.38
  9
$DIMRND
 40
0.0
  9
$DIMDLE
 40
0.0
  9
$DIMEXE
 40
0.18
  9
$DIMTP
 40
0.0
  9
$DIMTM
 40
0.0
  9
$DIMTXT
 40
0.18
  9
$DIMCEN
 40
0.09
  9
$DIMTSZ
 40
0.0
  9
$DIMTOL
 70
     0
  9
$DIMLIM
 70
     0
  9
$DIMTIH
 70
     1
  9
$DIMTOH
 70
     1
  9
$DIMSE1
 70
     0
  9
$DIMSE2
 70
     0
  9
$DIMTAD
 70
     0
  9
$DIMZIN
 70
     0
  9
$DIMBLK
  1

  9
$DIMASO
 70
     1
  9
$DIMSHO
 70
     1
  9
$DIMPOST
  1

  9
$DIMAPOST
  1

  9
$DIMALT
 70
     0
  9
$DIMALTD
 70
     2
  9
$DIMALTF
 40
25.4
  9
$DIMLFAC
 40
1.0
  9
$DIMTOFL
 70
     0
  9
$DIMTVP
 40
0.0
  9
$DIMTIX
 70
     0
  9
$DIMSOXD
 70
     0
  9
$DIMSAH
 70
     0
  9
$DIMBLK1
  1

  9
$DIMBLK2
  1

  9
$DIMSTYLE
  2
STANDARD
  9
$DIMCLRD
 70
     0
  9
$DIMCLRE
 70
     0
  9
$DIMCLRT
 70
     0
  9
$DIMTFAC
 40
1.0
  9
$DIMGAP
 40
0.09
  9
$LUNITS
 70
     2
  9
$LUPREC
 70
     3
  9
$SKETCHINC
 40
0.1
  9
$FILLETRAD
 40
0.5
  9
$AUNITS
 70
     0
  9
$AUPREC
 70
     0
  9
$MENU
  1
.
  9
$ELEVATION
 40
0.0
  9
$PELEVATION
 40
0.0
  9
$THICKNESS
 40
0.0
  9
$LIMCHECK
 70
     0
  9
$CHAMFERA
 40
0.0
  9
$CHAMFERB
 40
0.0
  9
$SKPOLY
 70
     0
  9
$TDCREATE
 40
2457441.848134028
  9
$TDUPDATE
 40
2457441.848147593
  9
$TDINDWG
 40
0.0000000116
  9
$TDUSRTIMER
 40
0.0000000116
  9
$USRTIMER
 70
     1
  9
$ANGBASE
 50
0.0
  9
$ANGDIR
 70
     0
  9
$PDMODE
 70
     0
  9
$PDSIZE
 40
0.0
  9
$PLINEWID
 40
0.0
  9
$COORDS
 70
     1
  9
$SPLFRAME
 70
     0
  9
$SPLINETYPE
 70
     6
  9
$SPLINESEGS
 70
     8
  9
$ATTDIA
 70
     0
  9
$ATTREQ
 70
     1
  9
$HANDLING
 70
     1
  9
$HANDSEED
  5
214
  9
$SURFTAB1
 70
     6
  9
$SURFTAB2
 70
     6
  9
$SURFTYPE
 70
     6
  9
$SURFU
 70
     6
  9
$SURFV
 70
     6
  9
$UCSNAME
  2

  9
$UCSORG
 10
0.0
 20
0.0
 30
0.0
  9
$UCSXDIR
 10
1.0
 20
0.0
 30
0.0
  9
$UCSYDIR
 10
0.0
 20
1.0
 30
0.0
  9
$PUCSNAME
  2

  9
$PUCSORG
 10
0.0
 20
0.0
 30
0.0
  9
$PUCSXDIR
 10
1.0
 20
0.0
 30
0.0
  9
$PUCSYDIR
 10
0.0
 20
1.0
 30
0.0
  9
$USERI1
 70
     0
  9
$USERI2
 70
     0
  9
$USERI3
 70
     0
  9
$USERI4
 70
     0
  9
$USERI5
 70
     0
  9
$USERR1
 40
0.0
  9
$USERR2
 40
0.0
  9
$USERR3
 40
0.0
  9
$USERR4
 40
0.0
  9
$USERR5
 40
0.0
  9
$WORLDVIEW
 70
     1
  9
$SHADEDGE
 70
     3
  9
$SHADEDIF
 70
    70
  9
$TILEMODE
 70
     1
  9
$MAXACTVP
 70
    64
  9
$PLIMCHECK
 70
     0
  9
$PEXTMIN
 10
1.000000000000000E+20
 20
1.000000000000000E+20
 30
1.000000000000000E+20
  9
$PEXTMAX
 10
-1.000000000000000E+20
 20
-1.000000000000000E+20
 30
-1.000000000000000E+20
  9
$PLIMMIN
 10
0.0
 20
0.0
  9
$PLIMMAX
 10
12.0
 20
9.0
  9
$UNITMODE
 70
     0
  9
$VISRETAIN
 70
     1
  9
$PLINEGEN
 70
     0
  9
$PSLTSCALE
 70
     1
  0
ENDSEC
  0
SECTION
  2
TABLES
  0
TABLE
  2
VPORT
 70
     1
  0
VPORT
  2
*ACTIVE
 70
     0
 10
0.0
 20
0.0
 11
1.0
 21
1.0
 12
-853.8986626080034
 22
804.8
 13
0.0
 23
0.0
 14
0.5
 24
0.5
 15
0.5
 25
0.5
 16
0.0
 26
0.0
 36
1.0
 17
0.0
 27
0.0
 37
0.0
 40
621.7919999999999
 41
1.0
 42
50.0
 43
0.0
 44
0.0
 50
0.0
 51
0.0
 71
     0
 72
   100
 73
     1
 74
     3
 75
     0
 76
     0
 77
     0
 78
     0
  0
ENDTAB
  0
TABLE
  2
LTYPE
 70
     1
  0
LTYPE
  2
CONTINUOUS
 70
     0
  3
Solid line
 72
    65
 73
     0
 40
0.0
  0
ENDTAB
  0
TABLE
  2
LAYER
 70
     2
  0
LAYER
  2
0
 70
     0
 62
     7
  6
CONTINUOUS
  0
LAYER
  2
DEFAULT
 70
     0
 62
     7
  6
CONTINUOUS
  0
ENDTAB
  0
TABLE
  2
STYLE
 70
     1
  0
STYLE
  2
STANDARD
 70
     0
 40
0.0
 41
1.0
 50
0.0
 71
     0
 42
0.2
  3
txt
  4

  0
ENDTAB
  0
TABLE
  2
VIEW
 70
     0
  0
ENDTAB
  0
TABLE
  2
UCS
 70
     0
  0
ENDTAB
  0
TABLE
  2
APPID
 70
     1
  0
APPID
  2
ACAD
 70
     0
  0
ENDTAB
  0
TABLE
  2
DIMSTYLE
 70
     1
  0
DIMSTYLE
  2
STANDARD
 70
     0
  3

  4

  5

  6

  7

 40
1.0
 41
0.18
 42
0.0625
 43
0.38
 44
0.18
 45
0.0
 46
0.0
 47
0.0
 48
0.0
140
0.18
141
0.09
142
0.0
143
25.4
144
1.0
145
0.0
146
1.0
147
0.09
 71
     0
 72
     0
 73
     1
 74
     1
 75
     0
 76
     0
 77
     0
 78
     0
170
     0
171
     2
172
     0
173
     0
174
     0
175
     0
176
     0
177
     0
178
     0
  0
ENDTAB
  0
ENDSEC
  0
SECTION
  2
BLOCKS
  0
BLOCK
  8
0
  2
$MODEL_SPACE
 70
     0
 10
0.0
 20
0.0
 30
0.0
  3
$MODEL_SPACE
  1

  0
ENDBLK
  5
21
  8
0
  0
BLOCK
 67
     1
  8
0
  2
$PAPER_SPACE
 70
     0
 10
0.0
 20
0.0
 30
0.0
  3
$PAPER_SPACE
  1

  0
ENDBLK
  5
1D
 67
     1
  8
0
  0
ENDSEC
  0
SECTION
  2
ENTITIES
  0
POLYLINE
  5
6F
  8
DEFAULT
 66
     1
 10
0.0
 20
0.0
 30
0.0
 70
     1
  0
VERTEX
  5
70
  8
DEFAULT
 10
-944.9428235956037
 20
582.523479175996
 30
0.0
 42
2.379592677641945
  0
VERTEX
  5
71
  8
DEFAULT
 10
-944.1263994856074
 20
583.3233105636087
 30
0.0
 42
0.9332016168202452
  0
VERTEX
  5
72
  8
DEFAULT
 10
-950.1120858830324
 20
593.6908318516031
 30
0.0
 42
3.584406088092302
  0
VERTEX
  5
73
  8
DEFAULT
 10
-950.8294041452061
 20
593.2766883085452
 30
0.0
 42
0.9332023834141737
  0
VERTEX
  5
74
  8
DEFAULT
 10
-944.8437102322574
 20
582.9091706622387
 30
0.0
 42
0.1264339326355758
  0
SEQEND
  5
75
  8
DEFAULT
  0
POLYLINE
  5
76
  8
DEFAULT
 66
     1
 10
0.0
 20
0.0
 30
0.0
 70
     1
  0
VERTEX
  5
77
  8
DEFAULT
 10
-967.4729724447371
 20
553.7141417962068
 30
0.0
 42
0.9332020606092624
  0
VERTEX
  5
78
  8
DEFAULT
 10
-979.4443527712689
 20
553.714141796207
 30
0.0
 42
3.584427648821195
  0
VERTEX
  5
79
  8
DEFAULT
 10
-979.4443527631909
 20
552.885858468512
 30
0.0
 42
0.933202042363519
  0
VERTEX
  5
7A
  8
DEFAULT
 10
-967.472972452815
 20
552.8858584685119
 30
0.0
 42
3.584427648823166
  0
SEQEND
  5
7B
  8
DEFAULT
  0
POLYLINE
  5
7C
  8
DEFAULT
 66
     1
 10
0.0
 20
0.0
 30
0.0
 70
     1
  0
VERTEX
  5
7D
  8
DEFAULT
 10
-1056.458662608003
 20
510.0000000000002
 30
0.0
  0
VERTEX
  5
7E
  8
DEFAULT
 10
-1061.458662608003
 20
510.0000000000002
 30
0.0
 42
-0.4142135623730951
  0
VERTEX
  5
7F
  8
DEFAULT
 10
-1076.458662608003
 20
525.0000000000002
 30
0.0
  0
VERTEX
  5
80
  8
DEFAULT
 10
-1076.458662608003
 20
648.4000000000003
 30
0.0
 42
-0.4142135623730963
  0
VERTEX
  5
81
  8
DEFAULT
 10
-1060.458662608003
 20
664.4000000000004
 30
0.0
  0
VERTEX
  5
82
  8
DEFAULT
 10
-1056.458662608003
 20
664.4000000000003
 30
0.0
  0
VERTEX
  5
83
  8
DEFAULT
 10
-1041.387062833095
 20
664.4000000000007
 30
0.0
 42
-0.1451442237771255
  0
VERTEX
  5
84
  8
DEFAULT
 10
-1032.664895105765
 20
661.8135678479096
 30
0.0
 42
0.2941171398510214
  0
VERTEX
  5
85
  8
DEFAULT
 10
-914.2524299011654
 20
661.813567526379
 30
0.0
 42
-0.1451442255167461
  0
VERTEX
  5
86
  8
DEFAULT
 10
-905.5302623829107
 20
664.4000000000005
 30
0.0
  0
VERTEX
  5
87
  8
DEFAULT
 10
-890.4586626080029
 20
664.4000000000004
 30
0.0
  0
VERTEX
  5
88
  8
DEFAULT
 10
-886.4586626080031
 20
664.4000000000004
 30
0.0
 42
-0.4142135623730975
  0
VERTEX
  5
89
  8
DEFAULT
 10
-870.4586626080029
 20
648.4000000000004
 30
0.0
  0
VERTEX
  5
8A
  8
DEFAULT
 10
-870.4586626080028
 20
525.0000000000002
 30
0.0
 42
-0.4142135623730957
  0
VERTEX
  5
8B
  8
DEFAULT
 10
-885.4586626080029
 20
510.0000000000001
 30
0.0
  0
VERTEX
  5
8C
  8
DEFAULT
 10
-890.4586626080029
 20
510.0000000000002
 30
0.0
  0
VERTEX
  5
8D
  8
DEFAULT
 10
-925.9646634722519
 20
510.0000000000002
 30
0.0
 42
-0.2225848818877985
  0
VERTEX
  5
8E
  8
DEFAULT
 10
-938.2562039458098
 20
515.7570496053687
 30
0.0
  0
VERTEX
  5
8F
  8
DEFAULT
 10
-956.161121270196
 20
537.242950394632
 30
0.0
 42
0.2225848818878016
  0
VERTEX
  5
90
  8
DEFAULT
 10
-968.452661743754
 20
543.0000000000001
 30
0.0
  0
VERTEX
  5
91
  8
DEFAULT
 10
-978.4646634722519
 20
543.0000000000002
 30
0.0
 42
0.2225848818878035
  0
VERTEX
  5
92
  8
DEFAULT
 10
-990.75620394581
 20
537.2429503946319
 30
0.0
  0
VERTEX
  5
93
  8
DEFAULT
 10
-1008.661121270196
 20
515.7570496053686
 30
0.0
 42
-0.2225848818878112
  0
VERTEX
  5
94
  8
DEFAULT
 10
-1020.952661743754
 20
510.0000000000002
 30
0.0
  0
SEQEND
  5
95
  8
DEFAULT
  0
POLYLINE
  5
96
  8
DEFAULT
 66
     1
 10
0.0
 20
0.0
 30
0.0
 70
     1
  0
VERTEX
  5
97
  8
DEFAULT
 10
-1048.458662608003
 20
634.4000007629397
 30
0.0
  0
VERTEX
  5
98
  8
DEFAULT
 10
-1048.458662608003
 20
614.4000007629397
 30
0.0
  0
VERTEX
  5
99
  8
DEFAULT
 10
-1042.058662608003
 20
614.4000007629397
 30
0.0
  0
VERTEX
  5
9A
  8
DEFAULT
 10
-1042.058662608003
 20
634.4000007629397
 30
0.0
  0
SEQEND
  5
9B
  8
DEFAULT
  0
POLYLINE
  5
9C
  8
DEFAULT
 66
     1
 10
0.0
 20
0.0
 30
0.0
 70
     1
  0
VERTEX
  5
9D
  8
DEFAULT
 10
-898.4586593565039
 20
614.4000007629397
 30
0.0
  0
VERTEX
  5
9E
  8
DEFAULT
 10
-898.4586593565039
 20
634.4000007629397
 30
0.0
  0
VERTEX
  5
9F
  8
DEFAULT
 10
-904.858659356504
 20
634.4000007629397
 30
0.0
  0
VERTEX
  5
A0
  8
DEFAULT
 10
-904.858659356504
 20
614.4000007629397
 30
0.0
  0
SEQEND
  5
A1
  8
DEFAULT
  0
POLYLINE
  5
A2
  8
DEFAULT
 66
     1
 10
0.0
 20
0.0
 30
0.0
 70
     1
  0
VERTEX
  5
A3
  8
DEFAULT
 10
-904.858662608003
 20
574.4000007629396
 30
0.0
  0
VERTEX
  5
A4
  8
DEFAULT
 10
-898.4586626080031
 20
574.4000007629396
 30
0.0
  0
VERTEX
  5
A5
  8
DEFAULT
 10
-898.4586626080031
 20
594.4000007629397
 30
0.0
  0
VERTEX
  5
A6
  8
DEFAULT
 10
-904.858662608003
 20
594.4000007629397
 30
0.0
  0
SEQEND
  5
A7
  8
DEFAULT
  0
POLYLINE
  5
A8
  8
DEFAULT
 66
     1
 10
0.0
 20
0.0
 30
0.0
 70
     1
  0
VERTEX
  5
A9
  8
DEFAULT
 10
-898.4586626080031
 20
554.4000007629397
 30
0.0
  0
VERTEX
  5
AA
  8
DEFAULT
 10
-904.858662608003
 20
554.4000007629397
 30
0.0
  0
VERTEX
  5
AB
  8
DEFAULT
 10
-904.858662608003
 20
534.4000007629397
 30
0.0
  0
VERTEX
  5
AC
  8
DEFAULT
 10
-898.4586626080031
 20
534.4000007629397
 30
0.0
  0
SEQEND
  5
AD
  8
DEFAULT
  0
POLYLINE
  5
AE
  8
DEFAULT
 66
     1
 10
0.0
 20
0.0
 30
0.0
 70
     1
  0
VERTEX
  5
AF
  8
DEFAULT
 10
-1042.058662608003
 20
594.4000007629397
 30
0.0
  0
VERTEX
  5
B0
  8
DEFAULT
 10
-1048.458662608003
 20
594.4000007629397
 30
0.0
  0
VERTEX
  5
B1
  8
DEFAULT
 10
-1048.458662608003
 20
574.4000007629396
 30
0.0
  0
VERTEX
  5
B2
  8
DEFAULT
 10
-1042.058662608003
 20
574.4000007629396
 30
0.0
  0
SEQEND
  5
B3
  8
DEFAULT
  0
POLYLINE
  5
B4
  8
DEFAULT
 66
     1
 10
0.0
 20
0.0
 30
0.0
 70
     1
  0
VERTEX
  5
B5
  8
DEFAULT
 10
-1048.458662608003
 20
534.4000007629397
 30
0.0
  0
VERTEX
  5
B6
  8
DEFAULT
 10
-1042.058662608003
 20
534.4000007629397
 30
0.0
  0
VERTEX
  5
B7
  8
DEFAULT
 10
-1042.058662608003
 20
554.4000007629397
 30
0.0
  0
VERTEX
  5
B8
  8
DEFAULT
 10
-1048.458662608003
 20
554.4000007629397
 30
0.0
  0
SEQEND
  5
B9
  8
DEFAULT
  0
POLYLINE
  5
BA
  8
DEFAULT
 66
     1
 10
0.0
 20
0.0
 30
0.0
 70
     1
  0
VERTEX
  5
BB
  8
DEFAULT
 10
-905.9586618450635
 20
517.9999992370608
 30
0.0
  0
VERTEX
  5
BC
  8
DEFAULT
 10
-905.9586618450635
 20
524.3999992370609
 30
0.0
  0
VERTEX
  5
BD
  8
DEFAULT
 10
-920.9586618450636
 20
524.3999992370609
 30
0.0
  0
VERTEX
  5
BE
  8
DEFAULT
 10
-920.9586618450636
 20
517.9999992370608
 30
0.0
  0
SEQEND
  5
BF
  8
DEFAULT
  0
POLYLINE
  5
C0
  8
DEFAULT
 66
     1
 10
0.0
 20
0.0
 30
0.0
 70
     1
  0
VERTEX
  5
C1
  8
DEFAULT
 10
-1001.974501620402
 20
582.523479175996
 30
0.0
 42
0.1264332524915217
  0
VERTEX
  5
C2
  8
DEFAULT
 10
-1002.073613950958
 20
582.9091687854251
 30
0.0
 42
0.933202042363594
  0
VERTEX
  5
C3
  8
DEFAULT
 10
-996.0879237957704
 20
593.2766882525755
 30
0.0
 42
3.584427153329241
  0
VERTEX
  5
C4
  8
DEFAULT
 10
-996.8052383001948
 20
593.6908299747987
 30
0.0
 42
0.9332020423635926
  0
VERTEX
  5
C5
  8
DEFAULT
 10
-1002.790928455383
 20
583.3233105076484
 30
0.0
 42
2.379587002987209
  0
SEQEND
  5
C6
  8
DEFAULT
  0
POLYLINE
  5
C7
  8
DEFAULT
 66
     1
 10
0.0
 20
0.0
 30
0.0
 70
     1
  0
VERTEX
  5
C8
  8
DEFAULT
 10
-1040.958663370942
 20
517.9999992370608
 30
0.0
  0
VERTEX
  5
C9
  8
DEFAULT
 10
-1025.958663370942
 20
517.9999992370608
 30
0.0
  0
VERTEX
  5
CA
  8
DEFAULT
 10
-1025.958663370942
 20
524.3999992370609
 30
0.0
  0
VERTEX
  5
CB
  8
DEFAULT
 10
-1040.958663370942
 20
524.3999992370609
 30
0.0
  0
SEQEND
  5
CC
  8
DEFAULT
  0
CIRCLE
  5
CD
  8
DEFAULT
 10
-901.6586428243827
 20
604.4000256397673
 30
0.0
 40
1.500000000000114
  0
CIRCLE
  5
CE
  8
DEFAULT
 10
-901.6586428243827
 20
564.400025639767
 30
0.0
 40
1.499999999999886
  0
CIRCLE
  5
CF
  8
DEFAULT
 10
-1045.258682391624
 20
604.4000256397673
 30
0.0
 40
1.5
  0
CIRCLE
  5
D0
  8
DEFAULT
 10
-1045.258682391624
 20
564.400025639767
 30
0.0
 40
1.5
  0
CIRCLE
  5
D1
  8
DEFAULT
 10
-973.4586626080029
 20
585.8000000000006
 30
0.0
 40
14.25000000000011
  0
CIRCLE
  5
D2
  8
DEFAULT
 10
-880.4586626080029
 20
642.2000000000003
 30
0.0
 40
2.5
  0
CIRCLE
  5
D3
  8
DEFAULT
 10
-880.4586626080029
 20
532.2000000000003
 30
0.0
 40
2.5
  0
CIRCLE
  5
D4
  8
DEFAULT
 10
-1066.458662608003
 20
642.2000000000005
 30
0.0
 40
2.5
  0
CIRCLE
  5
D5
  8
DEFAULT
 10
-1066.458662608003
 20
532.2
 30
0.0
 40
2.5
  0
POLYLINE
  5
D6
  8
DEFAULT
 66
     1
 10
0.0
 20
0.0
 30
0.0
 70
     1
  0
VERTEX
  5
D7
  8
DEFAULT
 10
-745.4779018985106
 20
588.299999380112
 30
0.0
 42
0.5545488804725819
  0
VERTEX
  5
D8
  8
DEFAULT
 10
-754.1120858830325
 20
593.6908318516034
 30
0.0
 42
3.584406088089664
  0
VERTEX
  5
D9
  8
DEFAULT
 10
-754.8294041452061
 20
593.2766883085457
 30
0.0
 42
0.9332023834142784
  0
VERTEX
  5
DA
  8
DEFAULT
 10
-748.8437102322576
 20
582.9091706622389
 30
0.0
 42
3.584448218916307
  0
VERTEX
  5
DB
  8
DEFAULT
 10
-748.1263994856077
 20
583.3233105636091
 30
0.0
 42
0.2495229654457063
  0
SEQEND
  5
DC
  8
DEFAULT
  0
POLYLINE
  5
DD
  8
DEFAULT
 66
     1
 10
0.0
 20
0.0
 30
0.0
 70
     1
  0
VERTEX
  5
DE
  8
DEFAULT
 10
-783.4443527631909
 20
552.885858468512
 30
0.0
 42
0.9332020423635898
  0
VERTEX
  5
DF
  8
DEFAULT
 10
-771.4729724528149
 20
552.885858468512
 30
0.0
 42
3.584427648821835
  0
VERTEX
  5
E0
  8
DEFAULT
 10
-771.4729724447369
 20
553.7141417962066
 30
0.0
 42
0.9332020606092476
  0
VERTEX
  5
E1
  8
DEFAULT
 10
-783.4443527712691
 20
553.714141796207
 30
0.0
 42
3.584427648821085
  0
SEQEND
  5
E2
  8
DEFAULT
  0
POLYLINE
  5
E3
  8
DEFAULT
 66
     1
 10
0.0
 20
0.0
 30
0.0
 70
     1
  0
VERTEX
  5
E4
  8
DEFAULT
 10
-702.4586626080036
 20
614.4000007629397
 30
0.0
  0
VERTEX
  5
E5
  8
DEFAULT
 10
-708.8586626080037
 20
614.4000007629397
 30
0.0
  0
VERTEX
  5
E6
  8
DEFAULT
 10
-708.8586626080037
 20
594.4000007629396
 30
0.0
  0
VERTEX
  5
E7
  8
DEFAULT
 10
-702.4586626080036
 20
594.4000007629396
 30
0.0
  0
SEQEND
  5
E8
  8
DEFAULT
  0
POLYLINE
  5
E9
  8
DEFAULT
 66
     1
 10
0.0
 20
0.0
 30
0.0
 70
     1
  0
VERTEX
  5
EA
  8
DEFAULT
 10
-708.8586626080037
 20
554.4000007629396
 30
0.0
  0
VERTEX
  5
EB
  8
DEFAULT
 10
-702.4586626080036
 20
554.4000007629396
 30
0.0
  0
VERTEX
  5
EC
  8
DEFAULT
 10
-702.4586626080036
 20
574.4000007629397
 30
0.0
  0
VERTEX
  5
ED
  8
DEFAULT
 10
-708.8586626080037
 20
574.4000007629397
 30
0.0
  0
SEQEND
  5
EE
  8
DEFAULT
  0
POLYLINE
  5
EF
  8
DEFAULT
 66
     1
 10
0.0
 20
0.0
 30
0.0
 70
     1
  0
VERTEX
  5
F0
  8
DEFAULT
 10
-852.4586626080036
 20
594.4000007629396
 30
0.0
  0
VERTEX
  5
F1
  8
DEFAULT
 10
-846.0586626080036
 20
594.4000007629396
 30
0.0
  0
VERTEX
  5
F2
  8
DEFAULT
 10
-846.0586626080036
 20
614.4000007629397
 30
0.0
  0
VERTEX
  5
F3
  8
DEFAULT
 10
-852.4586626080036
 20
614.4000007629397
 30
0.0
  0
SEQEND
  5
F4
  8
DEFAULT
  0
POLYLINE
  5
F5
  8
DEFAULT
 66
     1
 10
0.0
 20
0.0
 30
0.0
 70
     1
  0
VERTEX
  5
F6
  8
DEFAULT
 10
-852.4586626080036
 20
574.4000007629397
 30
0.0
  0
VERTEX
  5
F7
  8
DEFAULT
 10
-852.4586626080036
 20
554.4000007629396
 30
0.0
  0
VERTEX
  5
F8
  8
DEFAULT
 10
-846.0586626080036
 20
554.4000007629396
 30
0.0
  0
VERTEX
  5
F9
  8
DEFAULT
 10
-846.0586626080036
 20
574.4000007629397
 30
0.0
  0
SEQEND
  5
FA
  8
DEFAULT
  0
POLYLINE
  5
FB
  8
DEFAULT
 66
     1
 10
0.0
 20
0.0
 30
0.0
 70
     1
  0
VERTEX
  5
FC
  8
DEFAULT
 10
-797.4394261255769
 20
588.2999993801119
 30
0.0
 42
0.2495229041665442
  0
VERTEX
  5
FD
  8
DEFAULT
 10
-800.0879237957704
 20
593.2766882525756
 30
0.0
 42
3.584427153329752
  0
VERTEX
  5
FE
  8
DEFAULT
 10
-800.8052383001949
 20
593.6908299747986
 30
0.0
 42
0.9332020423635251
  0
VERTEX
  5
FF
  8
DEFAULT
 10
-806.7909284553828
 20
583.3233105076486
 30
0.0
 42
3.584427153333337
  0
VERTEX
  5
100
  8
DEFAULT
 10
-806.0736139509587
 20
582.9091687854252
 30
0.0
 42
0.5545491133689574
  0
SEQEND
  5
101
  8
DEFAULT
  0
POLYLINE
  5
102
  8
DEFAULT
 66
     1
 10
0.0
 20
0.0
 30
0.0
 70
     1
  0
VERTEX
  5
103
  8
DEFAULT
 10
-702.4586593565041
 20
654.4000007629397
 30
0.0
  0
VERTEX
  5
104
  8
DEFAULT
 10
-708.858659356504
 20
654.4000007629397
 30
0.0
  0
VERTEX
  5
105
  8
DEFAULT
 10
-708.858659356504
 20
634.4000007629397
 30
0.0
  0
VERTEX
  5
106
  8
DEFAULT
 10
-702.4586593565041
 20
634.4000007629397
 30
0.0
  0
SEQEND
  5
107
  8
DEFAULT
  0
POLYLINE
  5
108
  8
DEFAULT
 66
     1
 10
0.0
 20
0.0
 30
0.0
 70
     1
  0
VERTEX
  5
109
  8
DEFAULT
 10
-852.458662608003
 20
654.4000007629397
 30
0.0
  0
VERTEX
  5
10A
  8
DEFAULT
 10
-852.458662608003
 20
634.4000007629397
 30
0.0
  0
VERTEX
  5
10B
  8
DEFAULT
 10
-846.058662608003
 20
634.4000007629397
 30
0.0
  0
VERTEX
  5
10C
  8
DEFAULT
 10
-846.058662608003
 20
654.4000007629397
 30
0.0
  0
SEQEND
  5
10D
  8
DEFAULT
  0
POLYLINE
  5
10E
  8
DEFAULT
 66
     1
 10
0.0
 20
0.0
 30
0.0
 70
     1
  0
VERTEX
  5
10F
  8
DEFAULT
 10
-844.9586633709424
 20
517.9999992370608
 30
0.0
  0
VERTEX
  5
110
  8
DEFAULT
 10
-829.9586633709423
 20
517.9999992370608
 30
0.0
  0
VERTEX
  5
111
  8
DEFAULT
 10
-829.9586633709423
 20
524.3999992370609
 30
0.0
  0
VERTEX
  5
112
  8
DEFAULT
 10
-844.9586633709424
 20
524.3999992370609
 30
0.0
  0
SEQEND
  5
113
  8
DEFAULT
  0
POLYLINE
  5
114
  8
DEFAULT
 66
     1
 10
0.0
 20
0.0
 30
0.0
 70
     1
  0
VERTEX
  5
115
  8
DEFAULT
 10
-709.9586585935645
 20
524.3999992370609
 30
0.0
  0
VERTEX
  5
116
  8
DEFAULT
 10
-724.9586585935647
 20
524.3999992370609
 30
0.0
  0
VERTEX
  5
117
  8
DEFAULT
 10
-724.9586585935647
 20
517.9999992370608
 30
0.0
  0
VERTEX
  5
118
  8
DEFAULT
 10
-709.9586585935645
 20
517.9999992370608
 30
0.0
  0
SEQEND
  5
119
  8
DEFAULT
  0
POLYLINE
  5
11A
  8
DEFAULT
 66
     1
 10
0.0
 20
0.0
 30
0.0
 70
     1
  0
VERTEX
  5
11B
  8
DEFAULT
 10
-709.5302623829127
 20
664.4000000000003
 30
0.0
  0
VERTEX
  5
11C
  8
DEFAULT
 10
-702.4590155336696
 20
664.4000000000004
 30
0.0
 42
-0.414213562373098
  0
VERTEX
  5
11D
  8
DEFAULT
 10
-694.4590155336695
 20
656.4000000000003
 30
0.0
  0
VERTEX
  5
11E
  8
DEFAULT
 10
-694.4590155336696
 20
518.0000000000002
 30
0.0
 42
-0.414213562373095
  0
VERTEX
  5
11F
  8
DEFAULT
 10
-702.4590155336696
 20
510.0000000000002
 30
0.0
  0
VERTEX
  5
120
  8
DEFAULT
 10
-729.9646634722519
 20
510.0000000000002
 30
0.0
 42
-0.2225848818878042
  0
VERTEX
  5
121
  8
DEFAULT
 10
-742.25620394581
 20
515.7570496053686
 30
0.0
  0
VERTEX
  5
122
  8
DEFAULT
 10
-760.1611212701961
 20
537.2429503946319
 30
0.0
 42
0.2225848818878045
  0
VERTEX
  5
123
  8
DEFAULT
 10
-772.4526617437541
 20
543.0000000000002
 30
0.0
  0
VERTEX
  5
124
  8
DEFAULT
 10
-782.4646634722519
 20
543.0000000000002
 30
0.0
 42
0.2225848818878132
  0
VERTEX
  5
125
  8
DEFAULT
 10
-794.7562039458098
 20
537.2429503946321
 30
0.0
  0
VERTEX
  5
126
  8
DEFAULT
 10
-812.6611212701962
 20
515.7570496053686
 30
0.0
 42
-0.2225848818878104
  0
VERTEX
  5
127
  8
DEFAULT
 10
-824.9526617437542
 20
510.0000000000002
 30
0.0
  0
VERTEX
  5
128
  8
DEFAULT
 10
-852.458662608003
 20
510.0000000000002
 30
0.0
 42
-0.4142135623730975
  0
VERTEX
  5
129
  8
DEFAULT
 10
-860.4586626080031
 20
518.0000000000002
 30
0.0
  0
VERTEX
  5
12A
  8
DEFAULT
 10
-860.4586626080029
 20
656.4000000000003
 30
0.0
 42
-0.4142135623730938
  0
VERTEX
  5
12B
  8
DEFAULT
 10
-852.458662608003
 20
664.4000000000002
 30
0.0
  0
VERTEX
  5
12C
  8
DEFAULT
 10
-845.3870628330933
 20
664.4000000000005
 30
0.0
 42
-0.1451442255167636
  0
VERTEX
  5
12D
  8
DEFAULT
 10
-836.664895314839
 20
661.8135675263778
 30
0.0
 42
0.294117134806139
  0
VERTEX
  5
12E
  8
DEFAULT
 10
-718.2524299011671
 20
661.8135675263782
 30
0.0
 42
-0.1451442255166734
  0
SEQEND
  5
12F
  8
DEFAULT
  0
CIRCLE
  5
130
  8
DEFAULT
 10
-849.2586823916243
 20
544.4000256397671
 30
0.0
 40
1.500000000000227
  0
CIRCLE
  5
131
  8
DEFAULT
 10
-849.258682391624
 20
584.4000256397671
 30
0.0
 40
1.5
  0
CIRCLE
  5
132
  8
DEFAULT
 10
-849.2586823916241
 20
624.400025639767
 30
0.0
 40
1.500000000000114
  0
CIRCLE
  5
133
  8
DEFAULT
 10
-705.6586428243832
 20
544.4000256397671
 30
0.0
 40
1.5
  0
CIRCLE
  5
134
  8
DEFAULT
 10
-705.6586428243832
 20
584.4000256397669
 30
0.0
 40
1.500000000000114
  0
CIRCLE
  5
135
  8
DEFAULT
 10
-705.6586428243833
 20
624.4000256397673
 30
0.0
 40
1.500000000000114
  0
CIRCLE
  5
136
  8
DEFAULT
 10
-777.4586626080029
 20
585.8000000000004
 30
0.0
 40
14.25000000000011
  0
POLYLINE
  5
137
  8
DEFAULT
 66
     1
 10
0.0
 20
0.0
 30
0.0
 70
     1
  0
VERTEX
  5
138
  8
DEFAULT
 10
-988.4586626080029
 20
518.2800000000001
 30
0.0
  0
VERTEX
  5
139
  8
DEFAULT
 10
-988.4586626080029
 20
531.6000000000004
 30
0.0
  0
VERTEX
  5
13A
  8
DEFAULT
 10
-980.9586633709423
 20
531.6000000000004
 30
0.0
  0
VERTEX
  5
13B
  8
DEFAULT
 10
-980.9586633709423
 20
538.0000000000002
 30
0.0
  0
VERTEX
  5
13C
  8
DEFAULT
 10
-965.9586633709423
 20
538.0000000000002
 30
0.0
  0
VERTEX
  5
13D
  8
DEFAULT
 10
-965.9586633709423
 20
531.6000000000004
 30
0.0
  0
VERTEX
  5
13E
  8
DEFAULT
 10
-958.4586626080029
 20
531.6000000000004
 30
0.0
  0
VERTEX
  5
13F
  8
DEFAULT
 10
-958.4586626080029
 20
518.2800000000001
 30
0.0
  0
VERTEX
  5
140
  8
DEFAULT
 10
-965.9586633709423
 20
518.2800000000001
 30
0.0
  0
VERTEX
  5
141
  8
DEFAULT
 10
-965.9586633709423
 20
511.8800000000001
 30
0.0
  0
VERTEX
  5
142
  8
DEFAULT
 10
-980.9586633709423
 20
511.8800000000001
 30
0.0
  0
VERTEX
  5
143
  8
DEFAULT
 10
-980.9586633709423
 20
518.2800000000001
 30
0.0
  0
SEQEND
  5
144
  8
DEFAULT
  0
POLYLINE
  5
145
  8
DEFAULT
 66
     1
 10
0.0
 20
0.0
 30
0.0
 70
     1
  0
VERTEX
  5
146
  8
DEFAULT
 10
-762.4586626080029
 20
531.6000000000001
 30
0.0
  0
VERTEX
  5
147
  8
DEFAULT
 10
-762.4586626080029
 20
518.28
 30
0.0
  0
VERTEX
  5
148
  8
DEFAULT
 10
-769.9586618450635
 20
518.28
 30
0.0
  0
VERTEX
  5
149
  8
DEFAULT
 10
-769.9586618450635
 20
511.8799999999999
 30
0.0
  0
VERTEX
  5
14A
  8
DEFAULT
 10
-784.9586618450637
 20
511.8799999999999
 30
0.0
  0
VERTEX
  5
14B
  8
DEFAULT
 10
-784.9586618450636
 20
518.28
 30
0.0
  0
VERTEX
  5
14C
  8
DEFAULT
 10
-792.458662608003
 20
518.28
 30
0.0
  0
VERTEX
  5
14D
  8
DEFAULT
 10
-792.458662608003
 20
531.6000000000001
 30
0.0
  0
VERTEX
  5
14E
  8
DEFAULT
 10
-784.9586618450636
 20
531.6000000000001
 30
0.0
  0
VERTEX
  5
14F
  8
DEFAULT
 10
-784.9586618450636
 20
538.0
 30
0.0
  0
VERTEX
  5
150
  8
DEFAULT
 10
-769.9586618450635
 20
538.0
 30
0.0
  0
VERTEX
  5
151
  8
DEFAULT
 10
-769.9586618450635
 20
531.6000000000001
 30
0.0
  0
SEQEND
  5
152
  8
DEFAULT
  0
POLYLINE
  5
153
  8
DEFAULT
 66
     1
 10
0.0
 20
0.0
 30
0.0
 70
     1
  0
VERTEX
  5
154
  8
DEFAULT
 10
-1122.578662608003
 20
626.7000007629397
 30
0.0
  0
VERTEX
  5
155
  8
DEFAULT
 10
-1128.978662608003
 20
626.7000007629397
 30
0.0
  0
VERTEX
  5
156
  8
DEFAULT
 10
-1128.978662608003
 20
618.2875007629395
 30
0.0
  0
VERTEX
  5
157
  8
DEFAULT
 10
-1134.23035202961
 20
618.2875007629395
 30
0.0
  0
VERTEX
  5
158
  8
DEFAULT
 10
-1134.23035202961
 20
620.7875007629395
 30
0.0
  0
VERTEX
  5
159
  8
DEFAULT
 10
-1137.48035202961
 20
620.7875007629395
 30
0.0
  0
VERTEX
  5
15A
  8
DEFAULT
 10
-1137.48035202961
 20
618.2875007629395
 30
0.0
  0
VERTEX
  5
15B
  8
DEFAULT
 10
-1139.48035202961
 20
618.2875007629395
 30
0.0
  0
VERTEX
  5
15C
  8
DEFAULT
 10
-1139.48035202961
 20
615.1125007629396
 30
0.0
  0
VERTEX
  5
15D
  8
DEFAULT
 10
-1137.48035202961
 20
615.1125007629396
 30
0.0
  0
VERTEX
  5
15E
  8
DEFAULT
 10
-1137.48035202961
 20
612.6125007629396
 30
0.0
  0
VERTEX
  5
15F
  8
DEFAULT
 10
-1134.23035202961
 20
612.6125007629396
 30
0.0
  0
VERTEX
  5
160
  8
DEFAULT
 10
-1134.23035202961
 20
615.1125007629396
 30
0.0
  0
VERTEX
  5
161
  8
DEFAULT
 10
-1128.978662608003
 20
615.1125007629396
 30
0.0
  0
VERTEX
  5
162
  8
DEFAULT
 10
-1128.978662608003
 20
606.7000007629397
 30
0.0
  0
VERTEX
  5
163
  8
DEFAULT
 10
-1122.578662608003
 20
606.7000007629397
 30
0.0
  0
VERTEX
  5
164
  8
DEFAULT
 10
-1122.578662608003
 20
586.7000007629396
 30
0.0
  0
VERTEX
  5
165
  8
DEFAULT
 10
-1128.978662608003
 20
586.7000007629396
 30
0.0
  0
VERTEX
  5
166
  8
DEFAULT
 10
-1128.978662608003
 20
578.2875007629394
 30
0.0
  0
VERTEX
  5
167
  8
DEFAULT
 10
-1134.23035202961
 20
578.2875007629395
 30
0.0
  0
VERTEX
  5
168
  8
DEFAULT
 10
-1134.23035202961
 20
580.7875007629395
 30
0.0
  0
VERTEX
  5
169
  8
DEFAULT
 10
-1137.48035202961
 20
580.7875007629395
 30
0.0
  0
VERTEX
  5
16A
  8
DEFAULT
 10
-1137.48035202961
 20
578.2875007629395
 30
0.0
  0
VERTEX
  5
16B
  8
DEFAULT
 10
-1139.48035202961
 20
578.2875007629394
 30
0.0
  0
VERTEX
  5
16C
  8
DEFAULT
 10
-1139.48035202961
 20
575.1125007629395
 30
0.0
  0
VERTEX
  5
16D
  8
DEFAULT
 10
-1137.48035202961
 20
575.1125007629396
 30
0.0
  0
VERTEX
  5
16E
  8
DEFAULT
 10
-1137.48035202961
 20
572.6125007629396
 30
0.0
  0
VERTEX
  5
16F
  8
DEFAULT
 10
-1134.23035202961
 20
572.6125007629396
 30
0.0
  0
VERTEX
  5
170
  8
DEFAULT
 10
-1134.23035202961
 20
575.1125007629396
 30
0.0
  0
VERTEX
  5
171
  8
DEFAULT
 10
-1128.978662608003
 20
575.1125007629395
 30
0.0
  0
VERTEX
  5
172
  8
DEFAULT
 10
-1128.978662608003
 20
566.7000007629397
 30
0.0
  0
VERTEX
  5
173
  8
DEFAULT
 10
-1122.578662608003
 20
566.7000007629397
 30
0.0
  0
VERTEX
  5
174
  8
DEFAULT
 10
-1122.578662608003
 20
546.7000007629397
 30
0.0
  0
VERTEX
  5
175
  8
DEFAULT
 10
-1128.978662608003
 20
546.7000007629396
 30
0.0
  0
VERTEX
  5
176
  8
DEFAULT
 10
-1128.978662608003
 20
538.2875007629394
 30
0.0
  0
VERTEX
  5
177
  8
DEFAULT
 10
-1134.23035202961
 20
538.2875007629395
 30
0.0
  0
VERTEX
  5
178
  8
DEFAULT
 10
-1134.23035202961
 20
540.7875007629395
 30
0.0
  0
VERTEX
  5
179
  8
DEFAULT
 10
-1137.48035202961
 20
540.7875007629395
 30
0.0
  0
VERTEX
  5
17A
  8
DEFAULT
 10
-1137.48035202961
 20
538.2875007629395
 30
0.0
  0
VERTEX
  5
17B
  8
DEFAULT
 10
-1139.48035202961
 20
538.2875007629394
 30
0.0
  0
VERTEX
  5
17C
  8
DEFAULT
 10
-1139.48035202961
 20
535.1125007629395
 30
0.0
  0
VERTEX
  5
17D
  8
DEFAULT
 10
-1137.48035202961
 20
535.1125007629396
 30
0.0
  0
VERTEX
  5
17E
  8
DEFAULT
 10
-1137.48035202961
 20
532.6125007629396
 30
0.0
  0
VERTEX
  5
17F
  8
DEFAULT
 10
-1134.23035202961
 20
532.6125007629396
 30
0.0
  0
VERTEX
  5
180
  8
DEFAULT
 10
-1134.23035202961
 20
535.1125007629396
 30
0.0
  0
VERTEX
  5
181
  8
DEFAULT
 10
-1128.978662608003
 20
535.1125007629395
 30
0.0
  0
VERTEX
  5
182
  8
DEFAULT
 10
-1128.978662608003
 20
516.7000000000003
 30
0.0
  0
VERTEX
  5
183
  8
DEFAULT
 10
-1142.298662608003
 20
516.7000000000003
 30
0.0
  0
VERTEX
  5
184
  8
DEFAULT
 10
-1142.298662608003
 20
526.7000007629397
 30
0.0
  0
VERTEX
  5
185
  8
DEFAULT
 10
-1148.698662608003
 20
526.7000007629396
 30
0.0
  0
VERTEX
  5
186
  8
DEFAULT
 10
-1148.698662608003
 20
546.7000007629397
 30
0.0
  0
VERTEX
  5
187
  8
DEFAULT
 10
-1142.298662608003
 20
546.7000007629397
 30
0.0
  0
VERTEX
  5
188
  8
DEFAULT
 10
-1142.298662608003
 20
555.1125007629397
 30
0.0
  0
VERTEX
  5
189
  8
DEFAULT
 10
-1137.046973186396
 20
555.1125007629396
 30
0.0
  0
VERTEX
  5
18A
  8
DEFAULT
 10
-1137.046973186396
 20
552.6125007629396
 30
0.0
  0
VERTEX
  5
18B
  8
DEFAULT
 10
-1133.796973186396
 20
552.6125007629396
 30
0.0
  0
VERTEX
  5
18C
  8
DEFAULT
 10
-1133.796973186396
 20
555.1125007629396
 30
0.0
  0
VERTEX
  5
18D
  8
DEFAULT
 10
-1131.796973186396
 20
555.1125007629397
 30
0.0
  0
VERTEX
  5
18E
  8
DEFAULT
 10
-1131.796973186396
 20
558.2875007629397
 30
0.0
  0
VERTEX
  5
18F
  8
DEFAULT
 10
-1133.796973186396
 20
558.2875007629395
 30
0.0
  0
VERTEX
  5
190
  8
DEFAULT
 10
-1133.796973186396
 20
560.7875007629395
 30
0.0
  0
VERTEX
  5
191
  8
DEFAULT
 10
-1137.046973186396
 20
560.7875007629395
 30
0.0
  0
VERTEX
  5
192
  8
DEFAULT
 10
-1137.046973186396
 20
558.2875007629395
 30
0.0
  0
VERTEX
  5
193
  8
DEFAULT
 10
-1142.298662608003
 20
558.2875007629398
 30
0.0
  0
VERTEX
  5
194
  8
DEFAULT
 10
-1142.298662608003
 20
566.7000007629396
 30
0.0
  0
VERTEX
  5
195
  8
DEFAULT
 10
-1148.698662608003
 20
566.7000007629396
 30
0.0
  0
VERTEX
  5
196
  8
DEFAULT
 10
-1148.698662608003
 20
586.7000007629397
 30
0.0
  0
VERTEX
  5
197
  8
DEFAULT
 10
-1142.298662608003
 20
586.7000007629397
 30
0.0
  0
VERTEX
  5
198
  8
DEFAULT
 10
-1142.298662608003
 20
595.1125007629398
 30
0.0
  0
VERTEX
  5
199
  8
DEFAULT
 10
-1137.046973186396
 20
595.1125007629396
 30
0.0
  0
VERTEX
  5
19A
  8
DEFAULT
 10
-1137.046973186396
 20
592.6125007629396
 30
0.0
  0
VERTEX
  5
19B
  8
DEFAULT
 10
-1133.796973186396
 20
592.6125007629396
 30
0.0
  0
VERTEX
  5
19C
  8
DEFAULT
 10
-1133.796973186396
 20
595.1125007629396
 30
0.0
  0
VERTEX
  5
19D
  8
DEFAULT
 10
-1131.796973186396
 20
595.1125007629398
 30
0.0
  0
VERTEX
  5
19E
  8
DEFAULT
 10
-1131.796973186396
 20
598.2875007629398
 30
0.0
  0
VERTEX
  5
19F
  8
DEFAULT
 10
-1133.796973186396
 20
598.2875007629395
 30
0.0
  0
VERTEX
  5
1A0
  8
DEFAULT
 10
-1133.796973186396
 20
600.7875007629395
 30
0.0
  0
VERTEX
  5
1A1
  8
DEFAULT
 10
-1137.046973186396
 20
600.7875007629395
 30
0.0
  0
VERTEX
  5
1A2
  8
DEFAULT
 10
-1137.046973186396
 20
598.2875007629395
 30
0.0
  0
VERTEX
  5
1A3
  8
DEFAULT
 10
-1142.298662608003
 20
598.2875007629398
 30
0.0
  0
VERTEX
  5
1A4
  8
DEFAULT
 10
-1142.298662608003
 20
606.7000007629397
 30
0.0
  0
VERTEX
  5
1A5
  8
DEFAULT
 10
-1148.698662608003
 20
606.7000007629397
 30
0.0
  0
VERTEX
  5
1A6
  8
DEFAULT
 10
-1148.698662608003
 20
626.7000007629397
 30
0.0
  0
VERTEX
  5
1A7
  8
DEFAULT
 10
-1142.298662608003
 20
626.7000007629397
 30
0.0
  0
VERTEX
  5
1A8
  8
DEFAULT
 10
-1142.298662608003
 20
656.7000000000003
 30
0.0
  0
VERTEX
  5
1A9
  8
DEFAULT
 10
-1128.978662608003
 20
656.7000000000003
 30
0.0
  0
VERTEX
  5
1AA
  8
DEFAULT
 10
-1128.978662608003
 20
646.7000007629397
 30
0.0
  0
VERTEX
  5
1AB
  8
DEFAULT
 10
-1122.578662608003
 20
646.7000007629397
 30
0.0
  0
SEQEND
  5
1AC
  8
DEFAULT
  0
POLYLINE
  5
1AD
  8
DEFAULT
 66
     1
 10
0.0
 20
0.0
 30
0.0
 70
     1
  0
VERTEX
  5
1AE
  8
DEFAULT
 10
-1086.458662608003
 20
626.7000007629397
 30
0.0
  0
VERTEX
  5
1AF
  8
DEFAULT
 10
-1092.858662608003
 20
626.7000007629397
 30
0.0
  0
VERTEX
  5
1B0
  8
DEFAULT
 10
-1092.858662608003
 20
618.2875007629395
 30
0.0
  0
VERTEX
  5
1B1
  8
DEFAULT
 10
-1098.11035202961
 20
618.2875007629395
 30
0.0
  0
VERTEX
  5
1B2
  8
DEFAULT
 10
-1098.11035202961
 20
620.7875007629395
 30
0.0
  0
VERTEX
  5
1B3
  8
DEFAULT
 10
-1101.36035202961
 20
620.7875007629395
 30
0.0
  0
VERTEX
  5
1B4
  8
DEFAULT
 10
-1101.36035202961
 20
618.2875007629395
 30
0.0
  0
VERTEX
  5
1B5
  8
DEFAULT
 10
-1103.36035202961
 20
618.2875007629395
 30
0.0
  0
VERTEX
  5
1B6
  8
DEFAULT
 10
-1103.36035202961
 20
615.1125007629396
 30
0.0
  0
VERTEX
  5
1B7
  8
DEFAULT
 10
-1101.36035202961
 20
615.1125007629396
 30
0.0
  0
VERTEX
  5
1B8
  8
DEFAULT
 10
-1101.36035202961
 20
612.6125007629396
 30
0.0
  0
VERTEX
  5
1B9
  8
DEFAULT
 10
-1098.11035202961
 20
612.6125007629396
 30
0.0
  0
VERTEX
  5
1BA
  8
DEFAULT
 10
-1098.11035202961
 20
615.1125007629396
 30
0.0
  0
VERTEX
  5
1BB
  8
DEFAULT
 10
-1092.858662608003
 20
615.1125007629396
 30
0.0
  0
VERTEX
  5
1BC
  8
DEFAULT
 10
-1092.858662608003
 20
606.7000007629397
 30
0.0
  0
VERTEX
  5
1BD
  8
DEFAULT
 10
-1086.458662608003
 20
606.7000007629397
 30
0.0
  0
VERTEX
  5
1BE
  8
DEFAULT
 10
-1086.458662608003
 20
586.7000007629396
 30
0.0
  0
VERTEX
  5
1BF
  8
DEFAULT
 10
-1092.858662608003
 20
586.7000007629396
 30
0.0
  0
VERTEX
  5
1C0
  8
DEFAULT
 10
-1092.858662608003
 20
578.2875007629394
 30
0.0
  0
VERTEX
  5
1C1
  8
DEFAULT
 10
-1098.11035202961
 20
578.2875007629395
 30
0.0
  0
VERTEX
  5
1C2
  8
DEFAULT
 10
-1098.11035202961
 20
580.7875007629395
 30
0.0
  0
VERTEX
  5
1C3
  8
DEFAULT
 10
-1101.36035202961
 20
580.7875007629395
 30
0.0
  0
VERTEX
  5
1C4
  8
DEFAULT
 10
-1101.36035202961
 20
578.2875007629395
 30
0.0
  0
VERTEX
  5
1C5
  8
DEFAULT
 10
-1103.36035202961
 20
578.2875007629394
 30
0.0
  0
VERTEX
  5
1C6
  8
DEFAULT
 10
-1103.36035202961
 20
575.1125007629395
 30
0.0
  0
VERTEX
  5
1C7
  8
DEFAULT
 10
-1101.36035202961
 20
575.1125007629396
 30
0.0
  0
VERTEX
  5
1C8
  8
DEFAULT
 10
-1101.36035202961
 20
572.6125007629396
 30
0.0
  0
VERTEX
  5
1C9
  8
DEFAULT
 10
-1098.11035202961
 20
572.6125007629396
 30
0.0
  0
VERTEX
  5
1CA
  8
DEFAULT
 10
-1098.11035202961
 20
575.1125007629396
 30
0.0
  0
VERTEX
  5
1CB
  8
DEFAULT
 10
-1092.858662608003
 20
575.1125007629395
 30
0.0
  0
VERTEX
  5
1CC
  8
DEFAULT
 10
-1092.858662608003
 20
566.7000007629397
 30
0.0
  0
VERTEX
  5
1CD
  8
DEFAULT
 10
-1086.458662608003
 20
566.7000007629397
 30
0.0
  0
VERTEX
  5
1CE
  8
DEFAULT
 10
-1086.458662608003
 20
546.7000007629397
 30
0.0
  0
VERTEX
  5
1CF
  8
DEFAULT
 10
-1092.858662608003
 20
546.7000007629396
 30
0.0
  0
VERTEX
  5
1D0
  8
DEFAULT
 10
-1092.858662608003
 20
538.2875007629395
 30
0.0
  0
VERTEX
  5
1D1
  8
DEFAULT
 10
-1098.11035202961
 20
538.2875007629395
 30
0.0
  0
VERTEX
  5
1D2
  8
DEFAULT
 10
-1098.11035202961
 20
540.7875007629395
 30
0.0
  0
VERTEX
  5
1D3
  8
DEFAULT
 10
-1101.36035202961
 20
540.7875007629395
 30
0.0
  0
VERTEX
  5
1D4
  8
DEFAULT
 10
-1101.36035202961
 20
538.2875007629395
 30
0.0
  0
VERTEX
  5
1D5
  8
DEFAULT
 10
-1103.36035202961
 20
538.2875007629394
 30
0.0
  0
VERTEX
  5
1D6
  8
DEFAULT
 10
-1103.36035202961
 20
535.1125007629395
 30
0.0
  0
VERTEX
  5
1D7
  8
DEFAULT
 10
-1101.36035202961
 20
535.1125007629396
 30
0.0
  0
VERTEX
  5
1D8
  8
DEFAULT
 10
-1101.36035202961
 20
532.6125007629396
 30
0.0
  0
VERTEX
  5
1D9
  8
DEFAULT
 10
-1098.11035202961
 20
532.6125007629396
 30
0.0
  0
VERTEX
  5
1DA
  8
DEFAULT
 10
-1098.11035202961
 20
535.1125007629396
 30
0.0
  0
VERTEX
  5
1DB
  8
DEFAULT
 10
-1092.858662608003
 20
535.1125007629395
 30
0.0
  0
VERTEX
  5
1DC
  8
DEFAULT
 10
-1092.858662608003
 20
516.7000000000003
 30
0.0
  0
VERTEX
  5
1DD
  8
DEFAULT
 10
-1106.178662608003
 20
516.7000000000003
 30
0.0
  0
VERTEX
  5
1DE
  8
DEFAULT
 10
-1106.178662608003
 20
526.7000007629397
 30
0.0
  0
VERTEX
  5
1DF
  8
DEFAULT
 10
-1112.578662608003
 20
526.7000007629396
 30
0.0
  0
VERTEX
  5
1E0
  8
DEFAULT
 10
-1112.578662608003
 20
546.7000007629397
 30
0.0
  0
VERTEX
  5
1E1
  8
DEFAULT
 10
-1106.178662608003
 20
546.7000007629397
 30
0.0
  0
VERTEX
  5
1E2
  8
DEFAULT
 10
-1106.178662608003
 20
555.1125007629397
 30
0.0
  0
VERTEX
  5
1E3
  8
DEFAULT
 10
-1100.926973186396
 20
555.1125007629396
 30
0.0
  0
VERTEX
  5
1E4
  8
DEFAULT
 10
-1100.926973186396
 20
552.6125007629396
 30
0.0
  0
VERTEX
  5
1E5
  8
DEFAULT
 10
-1097.676973186396
 20
552.6125007629396
 30
0.0
  0
VERTEX
  5
1E6
  8
DEFAULT
 10
-1097.676973186396
 20
555.1125007629396
 30
0.0
  0
VERTEX
  5
1E7
  8
DEFAULT
 10
-1095.676973186396
 20
555.1125007629397
 30
0.0
  0
VERTEX
  5
1E8
  8
DEFAULT
 10
-1095.676973186396
 20
558.2875007629397
 30
0.0
  0
VERTEX
  5
1E9
  8
DEFAULT
 10
-1097.676973186396
 20
558.2875007629395
 30
0.0
  0
VERTEX
  5
1EA
  8
DEFAULT
 10
-1097.676973186396
 20
560.7875007629395
 30
0.0
  0
VERTEX
  5
1EB
  8
DEFAULT
 10
-1100.926973186396
 20
560.7875007629395
 30
0.0
  0
VERTEX
  5
1EC
  8
DEFAULT
 10
-1100.926973186396
 20
558.2875007629395
 30
0.0
  0
VERTEX
  5
1ED
  8
DEFAULT
 10
-1106.178662608003
 20
558.2875007629398
 30
0.0
  0
VERTEX
  5
1EE
  8
DEFAULT
 10
-1106.178662608003
 20
566.7000007629396
 30
0.0
  0
VERTEX
  5
1EF
  8
DEFAULT
 10
-1112.578662608003
 20
566.7000007629396
 30
0.0
  0
VERTEX
  5
1F0
  8
DEFAULT
 10
-1112.578662608003
 20
586.7000007629397
 30
0.0
  0
VERTEX
  5
1F1
  8
DEFAULT
 10
-1106.178662608003
 20
586.7000007629397
 30
0.0
  0
VERTEX
  5
1F2
  8
DEFAULT
 10
-1106.178662608003
 20
595.1125007629398
 30
0.0
  0
VERTEX
  5
1F3
  8
DEFAULT
 10
-1100.926973186396
 20
595.1125007629396
 30
0.0
  0
VERTEX
  5
1F4
  8
DEFAULT
 10
-1100.926973186396
 20
592.6125007629396
 30
0.0
  0
VERTEX
  5
1F5
  8
DEFAULT
 10
-1097.676973186396
 20
592.6125007629396
 30
0.0
  0
VERTEX
  5
1F6
  8
DEFAULT
 10
-1097.676973186396
 20
595.1125007629396
 30
0.0
  0
VERTEX
  5
1F7
  8
DEFAULT
 10
-1095.676973186396
 20
595.1125007629398
 30
0.0
  0
VERTEX
  5
1F8
  8
DEFAULT
 10
-1095.676973186396
 20
598.2875007629398
 30
0.0
  0
VERTEX
  5
1F9
  8
DEFAULT
 10
-1097.676973186396
 20
598.2875007629395
 30
0.0
  0
VERTEX
  5
1FA
  8
DEFAULT
 10
-1097.676973186396
 20
600.7875007629395
 30
0.0
  0
VERTEX
  5
1FB
  8
DEFAULT
 10
-1100.926973186396
 20
600.7875007629395
 30
0.0
  0
VERTEX
  5
1FC
  8
DEFAULT
 10
-1100.926973186396
 20
598.2875007629395
 30
0.0
  0
VERTEX
  5
1FD
  8
DEFAULT
 10
-1106.178662608003
 20
598.2875007629398
 30
0.0
  0
VERTEX
  5
1FE
  8
DEFAULT
 10
-1106.178662608003
 20
606.7000007629397
 30
0.0
  0
VERTEX
  5
1FF
  8
DEFAULT
 10
-1112.578662608003
 20
606.7000007629397
 30
0.0
  0
VERTEX
  5
200
  8
DEFAULT
 10
-1112.578662608003
 20
626.7000007629397
 30
0.0
  0
VERTEX
  5
201
  8
DEFAULT
 10
-1106.178662608003
 20
626.7000007629397
 30
0.0
  0
VERTEX
  5
202
  8
DEFAULT
 10
-1106.178662608003
 20
656.7000000000003
 30
0.0
  0
VERTEX
  5
203
  8
DEFAULT
 10
-1092.858662608003
 20
656.7000000000003
 30
0.0
  0
VERTEX
  5
204
  8
DEFAULT
 10
-1092.858662608003
 20
646.7000007629397
 30
0.0
  0
VERTEX
  5
205
  8
DEFAULT
 10
-1086.458662608003
 20
646.7000007629397
 30
0.0
  0
SEQEND
  5
206
  8
DEFAULT
  0
POLYLINE
  5
207
  8
DEFAULT
 66
     1
 10
0.0
 20
0.0
 30
0.0
 70
     1
  0
VERTEX
  5
208
  8
DEFAULT
 10
-1158.698662608003
 20
500.0
 30
0.0
  0
VERTEX
  5
209
  8
DEFAULT
 10
-549.0986626080033
 20
500.0
 30
0.0
  0
VERTEX
  5
20A
  8
DEFAULT
 10
-549.0986626080033
 20
1109.6
 30
0.0
  0
VERTEX
  5
20B
  8
DEFAULT
 10
-1158.698662608003
 20
1109.6
 30
0.0
  0
SEQEND
  5
20C
  8
DEFAULT
  0
ENDSEC
  0
EOF
