  0
SECTION
  2
HEADER
  9
$ACADVER
  1
AC1009
  9
$DWGCODEPAGE
  3
ansi_1252
  9
$INSBASE
 10
0.0
 20
0.0
 30
0.0
  9
$EXTMIN
 10
-1858.698662608003
 20
500.0
 30
0.0
  9
$EXTMAX
 10
-1249.098662608003
 20
1109.6
 30
0.0
  9
$LIMMIN
 10
0.0
 20
0.0
  9
$LIMMAX
 10
12.0
 20
9.0
  9
$ORTHOMODE
 70
     0
  9
$REGENMODE
 70
     1
  9
$FILLMODE
 70
     1
  9
$QTEXTMODE
 70
     0
  9
$MIRRTEXT
 70
     1
  9
$DRAGMODE
 70
     2
  9
$LTSCALE
 40
1.0
  9
$OSMODE
 70
    37
  9
$ATTMODE
 70
     1
  9
$TEXTSIZE
 40
0.2
  9
$TRACEWID
 40
0.05
  9
$TEXTSTYLE
  7
STANDARD
  9
$CLAYER
  8
DEFAULT
  9
$CELTYPE
  6
BYLAYER
  9
$CECOLOR
 62
   256
  9
$DIMSCALE
 40
1.0
  9
$DIMASZ
 40
0.18
  9
$DIMEXO
 40
0.0625
  9
$DIMDLI
 40
0.38
  9
$DIMRND
 40
0.0
  9
$DIMDLE
 40
0.0
  9
$DIMEXE
 40
0.18
  9
$DIMTP
 40
0.0
  9
$DIMTM
 40
0.0
  9
$DIMTXT
 40
0.18
  9
$DIMCEN
 40
0.09
  9
$DIMTSZ
 40
0.0
  9
$DIMTOL
 70
     0
  9
$DIMLIM
 70
     0
  9
$DIMTIH
 70
     1
  9
$DIMTOH
 70
     1
  9
$DIMSE1
 70
     0
  9
$DIMSE2
 70
     0
  9
$DIMTAD
 70
     0
  9
$DIMZIN
 70
     0
  9
$DIMBLK
  1

  9
$DIMASO
 70
     1
  9
$DIMSHO
 70
     1
  9
$DIMPOST
  1

  9
$DIMAPOST
  1

  9
$DIMALT
 70
     0
  9
$DIMALTD
 70
     2
  9
$DIMALTF
 40
25.4
  9
$DIMLFAC
 40
1.0
  9
$DIMTOFL
 70
     0
  9
$DIMTVP
 40
0.0
  9
$DIMTIX
 70
     0
  9
$DIMSOXD
 70
     0
  9
$DIMSAH
 70
     0
  9
$DIMBLK1
  1

  9
$DIMBLK2
  1

  9
$DIMSTYLE
  2
STANDARD
  9
$DIMCLRD
 70
     0
  9
$DIMCLRE
 70
     0
  9
$DIMCLRT
 70
     0
  9
$DIMTFAC
 40
1.0
  9
$DIMGAP
 40
0.09
  9
$LUNITS
 70
     2
  9
$LUPREC
 70
     3
  9
$SKETCHINC
 40
0.1
  9
$FILLETRAD
 40
0.5
  9
$AUNITS
 70
     0
  9
$AUPREC
 70
     0
  9
$MENU
  1
.
  9
$ELEVATION
 40
0.0
  9
$PELEVATION
 40
0.0
  9
$THICKNESS
 40
0.0
  9
$LIMCHECK
 70
     0
  9
$CHAMFERA
 40
0.0
  9
$CHAMFERB
 40
0.0
  9
$SKPOLY
 70
     0
  9
$TDCREATE
 40
2457441.848260081
  9
$TDUPDATE
 40
2457441.848267836
  9
$TDINDWG
 40
0.0000000116
  9
$TDUSRTIMER
 40
0.0000000116
  9
$USRTIMER
 70
     1
  9
$ANGBASE
 50
0.0
  9
$ANGDIR
 70
     0
  9
$PDMODE
 70
     0
  9
$PDSIZE
 40
0.0
  9
$PLINEWID
 40
0.0
  9
$COORDS
 70
     1
  9
$SPLFRAME
 70
     0
  9
$SPLINETYPE
 70
     6
  9
$SPLINESEGS
 70
     8
  9
$ATTDIA
 70
     0
  9
$ATTREQ
 70
     1
  9
$HANDLING
 70
     1
  9
$HANDSEED
  5
FD
  9
$SURFTAB1
 70
     6
  9
$SURFTAB2
 70
     6
  9
$SURFTYPE
 70
     6
  9
$SURFU
 70
     6
  9
$SURFV
 70
     6
  9
$UCSNAME
  2

  9
$UCSORG
 10
0.0
 20
0.0
 30
0.0
  9
$UCSXDIR
 10
1.0
 20
0.0
 30
0.0
  9
$UCSYDIR
 10
0.0
 20
1.0
 30
0.0
  9
$PUCSNAME
  2

  9
$PUCSORG
 10
0.0
 20
0.0
 30
0.0
  9
$PUCSXDIR
 10
1.0
 20
0.0
 30
0.0
  9
$PUCSYDIR
 10
0.0
 20
1.0
 30
0.0
  9
$USERI1
 70
     0
  9
$USERI2
 70
     0
  9
$USERI3
 70
     0
  9
$USERI4
 70
     0
  9
$USERI5
 70
     0
  9
$USERR1
 40
0.0
  9
$USERR2
 40
0.0
  9
$USERR3
 40
0.0
  9
$USERR4
 40
0.0
  9
$USERR5
 40
0.0
  9
$WORLDVIEW
 70
     1
  9
$SHADEDGE
 70
     3
  9
$SHADEDIF
 70
    70
  9
$TILEMODE
 70
     1
  9
$MAXACTVP
 70
    64
  9
$PLIMCHECK
 70
     0
  9
$PEXTMIN
 10
1.000000000000000E+20
 20
1.000000000000000E+20
 30
1.000000000000000E+20
  9
$PEXTMAX
 10
-1.000000000000000E+20
 20
-1.000000000000000E+20
 30
-1.000000000000000E+20
  9
$PLIMMIN
 10
0.0
 20
0.0
  9
$PLIMMAX
 10
12.0
 20
9.0
  9
$UNITMODE
 70
     0
  9
$VISRETAIN
 70
     1
  9
$PLINEGEN
 70
     0
  9
$PSLTSCALE
 70
     1
  0
ENDSEC
  0
SECTION
  2
TABLES
  0
TABLE
  2
VPORT
 70
     1
  0
VPORT
  2
*ACTIVE
 70
     0
 10
0.0
 20
0.0
 11
1.0
 21
1.0
 12
-1553.898662608003
 22
804.8
 13
0.0
 23
0.0
 14
0.5
 24
0.5
 15
0.5
 25
0.5
 16
0.0
 26
0.0
 36
1.0
 17
0.0
 27
0.0
 37
0.0
 40
621.7919999999999
 41
1.0
 42
50.0
 43
0.0
 44
0.0
 50
0.0
 51
0.0
 71
     0
 72
   100
 73
     1
 74
     3
 75
     0
 76
     0
 77
     0
 78
     0
  0
ENDTAB
  0
TABLE
  2
LTYPE
 70
     1
  0
LTYPE
  2
CONTINUOUS
 70
     0
  3
Solid line
 72
    65
 73
     0
 40
0.0
  0
ENDTAB
  0
TABLE
  2
LAYER
 70
     2
  0
LAYER
  2
0
 70
     0
 62
     7
  6
CONTINUOUS
  0
LAYER
  2
DEFAULT
 70
     0
 62
     7
  6
CONTINUOUS
  0
ENDTAB
  0
TABLE
  2
STYLE
 70
     1
  0
STYLE
  2
STANDARD
 70
     0
 40
0.0
 41
1.0
 50
0.0
 71
     0
 42
0.2
  3
txt
  4

  0
ENDTAB
  0
TABLE
  2
VIEW
 70
     0
  0
ENDTAB
  0
TABLE
  2
UCS
 70
     0
  0
ENDTAB
  0
TABLE
  2
APPID
 70
     1
  0
APPID
  2
ACAD
 70
     0
  0
ENDTAB
  0
TABLE
  2
DIMSTYLE
 70
     1
  0
DIMSTYLE
  2
STANDARD
 70
     0
  3

  4

  5

  6

  7

 40
1.0
 41
0.18
 42
0.0625
 43
0.38
 44
0.18
 45
0.0
 46
0.0
 47
0.0
 48
0.0
140
0.18
141
0.09
142
0.0
143
25.4
144
1.0
145
0.0
146
1.0
147
0.09
 71
     0
 72
     0
 73
     1
 74
     1
 75
     0
 76
     0
 77
     0
 78
     0
170
     0
171
     2
172
     0
173
     0
174
     0
175
     0
176
     0
177
     0
178
     0
  0
ENDTAB
  0
ENDSEC
  0
SECTION
  2
BLOCKS
  0
BLOCK
  8
0
  2
$MODEL_SPACE
 70
     0
 10
0.0
 20
0.0
 30
0.0
  3
$MODEL_SPACE
  1

  0
ENDBLK
  5
21
  8
0
  0
BLOCK
 67
     1
  8
0
  2
$PAPER_SPACE
 70
     0
 10
0.0
 20
0.0
 30
0.0
  3
$PAPER_SPACE
  1

  0
ENDBLK
  5
1D
 67
     1
  8
0
  0
ENDSEC
  0
SECTION
  2
ENTITIES
  0
POLYLINE
  5
6F
  8
DEFAULT
 66
     1
 10
0.0
 20
0.0
 30
0.0
 70
     1
  0
VERTEX
  5
70
  8
DEFAULT
 10
-1761.41413675489
 20
603.6599122069385
 30
0.0
  0
VERTEX
  5
71
  8
DEFAULT
 10
-1761.887469895805
 20
604.4797492559098
 30
0.0
 42
0.3574594684412247
  0
VERTEX
  5
72
  8
DEFAULT
 10
-1765.001513728317
 20
605.6539745851985
 30
0.0
  0
VERTEX
  5
73
  8
DEFAULT
 10
-1768.030460153733
 20
604.6299300482272
 30
0.0
 42
0.4973188625286269
  0
VERTEX
  5
74
  8
DEFAULT
 10
-1776.441754953236
 20
599.7736667315004
 30
0.0
  0
VERTEX
  5
75
  8
DEFAULT
 10
-1778.843076749568
 20
597.6625444488742
 30
0.0
 42
0.3574596388911878
  0
VERTEX
  5
76
  8
DEFAULT
 10
-1779.383189700893
 20
594.3785907167761
 30
0.0
  0
VERTEX
  5
77
  8
DEFAULT
 10
-1778.909856559978
 20
593.5587536678048
 30
0.0
 42
0.3574596388911417
  0
VERTEX
  5
78
  8
DEFAULT
 10
-1775.795812727466
 20
592.3845283385164
 30
0.0
  0
VERTEX
  5
79
  8
DEFAULT
 10
-1772.76686630205
 20
593.4085728754875
 30
0.0
 42
0.497318862528481
  0
VERTEX
  5
7A
  8
DEFAULT
 10
-1764.355571502547
 20
598.2648361922141
 30
0.0
  0
VERTEX
  5
7B
  8
DEFAULT
 10
-1761.954249706215
 20
600.3759584748406
 30
0.0
 42
0.3574594684410186
  0
SEQEND
  5
7C
  8
DEFAULT
  0
POLYLINE
  5
7D
  8
DEFAULT
 66
     1
 10
0.0
 20
0.0
 30
0.0
 70
     1
  0
VERTEX
  5
7E
  8
DEFAULT
 10
-1761.887469895805
 20
645.520280702952
 30
0.0
  0
VERTEX
  5
7F
  8
DEFAULT
 10
-1761.41413675489
 20
646.3401177519232
 30
0.0
 42
0.3574594684411021
  0
VERTEX
  5
80
  8
DEFAULT
 10
-1761.954249706215
 20
649.6240714840216
 30
0.0
  0
VERTEX
  5
81
  8
DEFAULT
 10
-1764.355571502547
 20
651.7351937666476
 30
0.0
 42
0.4973188625286622
  0
VERTEX
  5
82
  8
DEFAULT
 10
-1772.76686630205
 20
656.591457083374
 30
0.0
  0
VERTEX
  5
83
  8
DEFAULT
 10
-1775.795812727466
 20
657.6155016203455
 30
0.0
 42
0.3574596388912712
  0
VERTEX
  5
84
  8
DEFAULT
 10
-1778.909856559978
 20
656.441276291057
 30
0.0
  0
VERTEX
  5
85
  8
DEFAULT
 10
-1779.383189700893
 20
655.6214392420858
 30
0.0
 42
0.3574596388910897
  0
VERTEX
  5
86
  8
DEFAULT
 10
-1778.843076749568
 20
652.3374855099877
 30
0.0
  0
VERTEX
  5
87
  8
DEFAULT
 10
-1776.441754953237
 20
650.2263632273615
 30
0.0
 42
0.4973188625287228
  0
VERTEX
  5
88
  8
DEFAULT
 10
-1768.030460153733
 20
645.370099910635
 30
0.0
  0
VERTEX
  5
89
  8
DEFAULT
 10
-1765.001513728317
 20
644.3460553736634
 30
0.0
 42
0.3574594684412572
  0
SEQEND
  5
8A
  8
DEFAULT
  0
POLYLINE
  5
8B
  8
DEFAULT
 66
     1
 10
0.0
 20
0.0
 30
0.0
 70
     1
  0
VERTEX
  5
8C
  8
DEFAULT
 10
-1805.871995558184
 20
614.8988564402972
 30
0.0
  0
VERTEX
  5
8D
  8
DEFAULT
 10
-1804.925329276353
 20
614.8988564402972
 30
0.0
 42
0.3574593832159762
  0
VERTEX
  5
8E
  8
DEFAULT
 10
-1802.351398395166
 20
617.0085848431067
 30
0.0
  0
VERTEX
  5
8F
  8
DEFAULT
 10
-1801.723773766082
 20
620.1437516627045
 30
0.0
 42
0.4973188625285176
  0
VERTEX
  5
90
  8
DEFAULT
 10
-1801.723773766082
 20
629.8562782961574
 30
0.0
  0
VERTEX
  5
91
  8
DEFAULT
 10
-1802.351398395166
 20
632.9914451157553
 30
0.0
 42
0.3574596388912078
  0
VERTEX
  5
92
  8
DEFAULT
 10
-1804.925329276353
 20
635.1011735185648
 30
0.0
  0
VERTEX
  5
93
  8
DEFAULT
 10
-1805.871995558184
 20
635.1011735185648
 30
0.0
 42
0.3574595536662973
  0
VERTEX
  5
94
  8
DEFAULT
 10
-1808.445926439371
 20
632.9914451157553
 30
0.0
  0
VERTEX
  5
95
  8
DEFAULT
 10
-1809.073551068454
 20
629.8562782961575
 30
0.0
 42
0.4973188625287174
  0
VERTEX
  5
96
  8
DEFAULT
 10
-1809.073551068454
 20
620.1437516627044
 30
0.0
  0
VERTEX
  5
97
  8
DEFAULT
 10
-1808.445926439371
 20
617.0085848431067
 30
0.0
 42
0.3574594684409897
  0
SEQEND
  5
98
  8
DEFAULT
  0
POLYLINE
  5
99
  8
DEFAULT
 66
     1
 10
0.0
 20
0.0
 30
0.0
 70
     1
  0
VERTEX
  5
9A
  8
DEFAULT
 10
-1833.698662608003
 20
728.000014979431
 30
0.0
  0
VERTEX
  5
9B
  8
DEFAULT
 10
-1710.298662608003
 20
728.000014979431
 30
0.0
 42
-0.4142135623730965
  0
VERTEX
  5
9C
  8
DEFAULT
 10
-1694.298662608003
 20
712.000014979431
 30
0.0
  0
VERTEX
  5
9D
  8
DEFAULT
 10
-1694.298662608003
 20
692.928414031874
 30
0.0
 42
-0.1451441971461284
  0
VERTEX
  5
9E
  8
DEFAULT
 10
-1696.885094112263
 20
684.2062480044424
 30
0.0
 42
0.2941171422016067
  0
VERTEX
  5
9F
  8
DEFAULT
 10
-1696.88509508166
 20
565.7937822726478
 30
0.0
 42
-0.1451442255168018
  0
VERTEX
  5
A0
  8
DEFAULT
 10
-1694.298662608003
 20
557.0716147544086
 30
0.0
  0
VERTEX
  5
A1
  8
DEFAULT
 10
-1694.298662608003
 20
538.0000149794311
 30
0.0
 42
-0.4142135623730926
  0
VERTEX
  5
A2
  8
DEFAULT
 10
-1710.298662608003
 20
522.0000149794311
 30
0.0
  0
VERTEX
  5
A3
  8
DEFAULT
 10
-1833.698662608003
 20
522.0000149794307
 30
0.0
 42
-0.4142135623730963
  0
VERTEX
  5
A4
  8
DEFAULT
 10
-1848.698662608004
 20
537.000014979431
 30
0.0
  0
VERTEX
  5
A5
  8
DEFAULT
 10
-1848.698662608003
 20
577.5060158436798
 30
0.0
 42
-0.2225848818877569
  0
VERTEX
  5
A6
  8
DEFAULT
 10
-1842.941613002635
 20
589.7975563172378
 30
0.0
  0
VERTEX
  5
A7
  8
DEFAULT
 10
-1821.455712213371
 20
607.7024736416241
 30
0.0
 42
0.2225848818878019
  0
VERTEX
  5
A8
  8
DEFAULT
 10
-1815.698662608003
 20
619.994014115182
 30
0.0
  0
VERTEX
  5
A9
  8
DEFAULT
 10
-1815.698662608003
 20
630.0060158436798
 30
0.0
 42
0.2225848818877648
  0
VERTEX
  5
AA
  8
DEFAULT
 10
-1821.455712213371
 20
642.2975563172379
 30
0.0
  0
VERTEX
  5
AB
  8
DEFAULT
 10
-1842.941613002635
 20
660.2024736416241
 30
0.0
 42
-0.2225848818878086
  0
VERTEX
  5
AC
  8
DEFAULT
 10
-1848.698662608003
 20
672.494014115182
 30
0.0
  0
VERTEX
  5
AD
  8
DEFAULT
 10
-1848.698662608003
 20
713.000014979431
 30
0.0
 42
-0.4142135623730887
  0
SEQEND
  5
AE
  8
DEFAULT
  0
CIRCLE
  5
AF
  8
DEFAULT
 10
-1754.298636968236
 20
553.1999951958105
 30
0.0
 40
4.500000000000114
  0
CIRCLE
  5
B0
  8
DEFAULT
 10
-1794.298636968237
 20
553.1999951958105
 30
0.0
 40
4.500000000000114
  0
CIRCLE
  5
B1
  8
DEFAULT
 10
-1754.298636968237
 20
696.8000347630516
 30
0.0
 40
4.500000000000227
  0
CIRCLE
  5
B2
  8
DEFAULT
 10
-1794.298636968237
 20
696.8000347630516
 30
0.0
 40
4.5
  0
CIRCLE
  5
B3
  8
DEFAULT
 10
-1772.898662608003
 20
625.000014979431
 30
0.0
 40
14.25
  0
CIRCLE
  5
B4
  8
DEFAULT
 10
-1716.498662608003
 20
532.000014979431
 30
0.0
 40
2.5
  0
CIRCLE
  5
B5
  8
DEFAULT
 10
-1826.498662608003
 20
532.000014979431
 30
0.0
 40
2.5
  0
CIRCLE
  5
B6
  8
DEFAULT
 10
-1716.498662608003
 20
718.000014979431
 30
0.0
 40
2.5
  0
CIRCLE
  5
B7
  8
DEFAULT
 10
-1826.498662608003
 20
718.000014979431
 30
0.0
 40
2.5
  0
CIRCLE
  5
B8
  8
DEFAULT
 10
-1664.654001670629
 20
600.3553390593273
 30
0.0
 40
1.400000000000269
  0
CIRCLE
  5
B9
  8
DEFAULT
 10
-1593.943323551975
 20
529.6446609406728
 30
0.0
 40
1.400000000000027
  0
CIRCLE
  5
BA
  8
DEFAULT
 10
-1593.943323551975
 20
600.3553390593274
 30
0.0
 40
1.400000000000027
  0
CIRCLE
  5
BB
  8
DEFAULT
 10
-1664.654001670629
 20
529.6446609406727
 30
0.0
 40
1.399999999999947
  0
CIRCLE
  5
BC
  8
DEFAULT
 10
-1679.298662611302
 20
565.0000000000001
 30
0.0
 40
1.399999999999864
  0
CIRCLE
  5
BD
  8
DEFAULT
 10
-1579.298662611302
 20
565.0000000000001
 30
0.0
 40
1.399999999999864
  0
CIRCLE
  5
BE
  8
DEFAULT
 10
-1629.298662611302
 20
515.0
 30
0.0
 40
1.400000000000205
  0
CIRCLE
  5
BF
  8
DEFAULT
 10
-1629.298662611302
 20
615.0
 30
0.0
 40
1.400000000000091
  0
CIRCLE
  5
C0
  8
DEFAULT
 10
-1629.298662608003
 20
565.0
 30
0.0
 40
55.00000000000011
  0
CIRCLE
  5
C1
  8
DEFAULT
 10
-1664.654001670629
 20
720.3553390593273
 30
0.0
 40
1.400000000000269
  0
CIRCLE
  5
C2
  8
DEFAULT
 10
-1593.943323551975
 20
649.6446609406728
 30
0.0
 40
1.400000000000027
  0
CIRCLE
  5
C3
  8
DEFAULT
 10
-1593.943323551975
 20
720.3553390593274
 30
0.0
 40
1.400000000000027
  0
CIRCLE
  5
C4
  8
DEFAULT
 10
-1664.654001670629
 20
649.6446609406728
 30
0.0
 40
1.400000000000027
  0
CIRCLE
  5
C5
  8
DEFAULT
 10
-1679.298662611302
 20
685.0
 30
0.0
 40
1.400000000000091
  0
CIRCLE
  5
C6
  8
DEFAULT
 10
-1579.298662611302
 20
685.0000000000003
 30
0.0
 40
1.399999999999864
  0
CIRCLE
  5
C7
  8
DEFAULT
 10
-1629.298662611302
 20
635.0
 30
0.0
 40
1.400000000000205
  0
CIRCLE
  5
C8
  8
DEFAULT
 10
-1629.298662611302
 20
735.0000000000001
 30
0.0
 40
1.399999999999977
  0
CIRCLE
  5
C9
  8
DEFAULT
 10
-1629.298662608003
 20
685.0
 30
0.0
 40
55.00000000000011
  0
CIRCLE
  5
CA
  8
DEFAULT
 10
-1353.943316750042
 20
529.6446759201035
 30
0.0
 40
1.399999999999867
  0
CIRCLE
  5
CB
  8
DEFAULT
 10
-1424.653994868696
 20
600.3553540387582
 30
0.0
 40
1.400000000000027
  0
CIRCLE
  5
CC
  8
DEFAULT
 10
-1424.653994868696
 20
529.6446759201035
 30
0.0
 40
1.400000000000027
  0
CIRCLE
  5
CD
  8
DEFAULT
 10
-1353.943316750042
 20
600.3553540387584
 30
0.0
 40
1.400000000000188
  0
CIRCLE
  5
CE
  8
DEFAULT
 10
-1339.298655809368
 20
565.0000149794307
 30
0.0
 40
1.399999999999636
  0
CIRCLE
  5
CF
  8
DEFAULT
 10
-1439.298655809368
 20
565.0000149794307
 30
0.0
 40
1.399999999999636
  0
CIRCLE
  5
D0
  8
DEFAULT
 10
-1389.298655809369
 20
615.0000149794306
 30
0.0
 40
1.399999999999864
  0
CIRCLE
  5
D1
  8
DEFAULT
 10
-1389.298655809369
 20
515.0000149794308
 30
0.0
 40
1.399999999999977
  0
CIRCLE
  5
D2
  8
DEFAULT
 10
-1389.298655812668
 20
565.0000149794307
 30
0.0
 40
54.99999999999989
  0
CIRCLE
  5
D3
  8
DEFAULT
 10
-1353.943316750042
 20
649.6446759201035
 30
0.0
 40
1.400000000000027
  0
CIRCLE
  5
D4
  8
DEFAULT
 10
-1424.653994868696
 20
720.3553540387582
 30
0.0
 40
1.400000000000027
  0
CIRCLE
  5
D5
  8
DEFAULT
 10
-1424.653994868696
 20
649.6446759201035
 30
0.0
 40
1.400000000000027
  0
CIRCLE
  5
D6
  8
DEFAULT
 10
-1353.943316750042
 20
720.3553540387583
 30
0.0
 40
1.400000000000108
  0
CIRCLE
  5
D7
  8
DEFAULT
 10
-1339.298655809369
 20
685.0000149794308
 30
0.0
 40
1.399999999999864
  0
CIRCLE
  5
D8
  8
DEFAULT
 10
-1439.298655809369
 20
685.0000149794308
 30
0.0
 40
1.399999999999864
  0
CIRCLE
  5
D9
  8
DEFAULT
 10
-1389.298655809369
 20
735.0000149794306
 30
0.0
 40
1.399999999999864
  0
CIRCLE
  5
DA
  8
DEFAULT
 10
-1389.298655809369
 20
635.000014979431
 30
0.0
 40
1.400000000000091
  0
CIRCLE
  5
DB
  8
DEFAULT
 10
-1389.298655812668
 20
685.000014979431
 30
0.0
 40
55.00000000000011
  0
CIRCLE
  5
DC
  8
DEFAULT
 10
-1509.298655809368
 20
615.0000149794307
 30
0.0
 40
0.7999999999998408
  0
CIRCLE
  5
DD
  8
DEFAULT
 10
-1509.298655809369
 20
515.0000149794306
 30
0.0
 40
0.7999999999998408
  0
CIRCLE
  5
DE
  8
DEFAULT
 10
-1459.298655809369
 20
565.0000149794307
 30
0.0
 40
0.8000000000001819
  0
CIRCLE
  5
DF
  8
DEFAULT
 10
-1559.298655809369
 20
565.0000149794303
 30
0.0
 40
0.8000000000001819
  0
CIRCLE
  5
E0
  8
DEFAULT
 10
-1544.653994868696
 20
529.6446759201034
 30
0.0
 40
0.8000000000001191
  0
CIRCLE
  5
E1
  8
DEFAULT
 10
-1473.943316750042
 20
600.3553540387582
 30
0.0
 40
0.7999999999999583
  0
CIRCLE
  5
E2
  8
DEFAULT
 10
-1473.943316750041
 20
529.6446759201035
 30
0.0
 40
0.7999999999997974
  0
CIRCLE
  5
E3
  8
DEFAULT
 10
-1544.653994868696
 20
600.3553540387582
 30
0.0
 40
0.8000000000001191
  0
CIRCLE
  5
E4
  8
DEFAULT
 10
-1509.298655809369
 20
565.0000149794312
 30
0.0
 40
18.00000000000034
  0
CIRCLE
  5
E5
  8
DEFAULT
 10
-1509.298655812668
 20
565.000014979431
 30
0.0
 40
55.00000000000011
  0
CIRCLE
  5
E6
  8
DEFAULT
 10
-1459.298652411701
 20
685.0000149794306
 30
0.0
 40
0.8000000000001819
  0
CIRCLE
  5
E7
  8
DEFAULT
 10
-1559.298652411701
 20
685.0000149794306
 30
0.0
 40
0.8000000000001819
  0
CIRCLE
  5
E8
  8
DEFAULT
 10
-1544.653991471029
 20
649.6446759201034
 30
0.0
 40
0.8000000000001191
  0
CIRCLE
  5
E9
  8
DEFAULT
 10
-1473.943313352374
 20
720.3553540387582
 30
0.0
 40
0.7999999999999583
  0
CIRCLE
  5
EA
  8
DEFAULT
 10
-1473.943313352374
 20
649.6446759201033
 30
0.0
 40
0.7999999999997975
  0
CIRCLE
  5
EB
  8
DEFAULT
 10
-1544.653991471029
 20
720.3553540387582
 30
0.0
 40
0.8000000000001191
  0
CIRCLE
  5
EC
  8
DEFAULT
 10
-1509.298652411701
 20
635.0000149794308
 30
0.0
 40
0.8000000000000682
  0
CIRCLE
  5
ED
  8
DEFAULT
 10
-1509.298652411701
 20
735.0000149794308
 30
0.0
 40
0.8000000000000682
  0
CIRCLE
  5
EE
  8
DEFAULT
 10
-1509.298652411701
 20
685.000014979431
 30
0.0
 40
25.00000000000011
  0
CIRCLE
  5
EF
  8
DEFAULT
 10
-1509.298652415
 20
685.000014979431
 30
0.0
 40
55.00000000000011
  0
POLYLINE
  5
F0
  8
DEFAULT
 66
     1
 10
0.0
 20
0.0
 30
0.0
 70
     1
  0
VERTEX
  5
F1
  8
DEFAULT
 10
-1858.698662608003
 20
500.0
 30
0.0
  0
VERTEX
  5
F2
  8
DEFAULT
 10
-1249.098662608003
 20
500.0
 30
0.0
  0
VERTEX
  5
F3
  8
DEFAULT
 10
-1249.098662608003
 20
1109.6
 30
0.0
  0
VERTEX
  5
F4
  8
DEFAULT
 10
-1858.698662608003
 20
1109.6
 30
0.0
  0
SEQEND
  5
F5
  8
DEFAULT
  0
ENDSEC
  0
EOF
